<?xml version="1.0" encoding="UTF-8"?>
<svg xmlns="http://www.w3.org/2000/svg" xmlns:xlink="http://www.w3.org/1999/xlink" width="432pt" height="504pt" viewBox="0 0 432 504" version="1.1">
<defs>
<clipPath id="clip1">
  <path d="M 5.480469 5.480469 L 426.523438 5.480469 L 426.523438 473.121094 L 5.480469 473.121094 Z M 5.480469 5.480469 "/>
</clipPath>
<clipPath id="clip2">
  <path d="M 215 5.480469 L 217 5.480469 L 217 473.121094 L 215 473.121094 Z M 215 5.480469 "/>
</clipPath>
</defs>
<g id="surface28050">
<rect x="0" y="0" width="432" height="504" style="fill:rgb(100%,100%,100%);fill-opacity:1;stroke:none;"/>
<rect x="0" y="0" width="432" height="504" style="fill:rgb(100%,100%,100%);fill-opacity:1;stroke:none;"/>
<path style="fill:none;stroke-width:1.066978;stroke-linecap:round;stroke-linejoin:round;stroke:rgb(100%,100%,100%);stroke-opacity:1;stroke-miterlimit:10;" d="M 0 504 L 432 504 L 432 0 L 0 0 Z M 0 504 "/>
<g clip-path="url(#clip1)" clip-rule="nonzero">
<path style=" stroke:none;fill-rule:nonzero;fill:rgb(92.156863%,92.156863%,92.156863%);fill-opacity:1;" d="M 5.480469 473.117188 L 426.523438 473.117188 L 426.523438 5.476562 L 5.480469 5.476562 Z M 5.480469 473.117188 "/>
</g>
<g clip-path="url(#clip2)" clip-rule="nonzero">
<path style="fill:none;stroke-width:1.066978;stroke-linecap:butt;stroke-linejoin:round;stroke:rgb(100%,100%,100%);stroke-opacity:1;stroke-miterlimit:10;" d="M 216 473.117188 L 216 5.480469 "/>
</g>
<path style="fill:none;stroke-width:1.066978;stroke-linecap:butt;stroke-linejoin:round;stroke:rgb(20%,20%,20%);stroke-opacity:1;stroke-miterlimit:10;" d="M 216 475.859375 L 216 473.117188 "/>
<path style=" stroke:none;fill-rule:nonzero;fill:rgb(0%,0%,0%);fill-opacity:1;" d="M 217.550781 496.238281 L 215.988281 493.851562 L 214.414062 496.238281 L 213.375 496.238281 L 215.441406 493.25 L 213.46875 490.425781 L 214.539062 490.425781 L 215.988281 492.6875 L 217.429688 490.425781 L 218.507812 490.425781 L 216.539062 493.242188 L 218.632812 496.238281 Z M 217.550781 496.238281 "/>
</g>
</svg>
