<?xml version="1.0" encoding="UTF-8"?>
<svg xmlns="http://www.w3.org/2000/svg" xmlns:xlink="http://www.w3.org/1999/xlink" width="504pt" height="360pt" viewBox="0 0 504 360" version="1.1">
<g id="surface9">
<rect x="0" y="0" width="504" height="360" style="fill:rgb(100%,100%,100%);fill-opacity:1;stroke:none;"/>
<path style=" stroke:none;fill-rule:nonzero;fill:rgb(0%,0%,0%);fill-opacity:1;" d="M 268.09375 341.28125 L 266.386719 338.679688 L 264.671875 341.28125 L 263.535156 341.28125 L 265.789062 338.023438 L 263.640625 334.941406 L 264.804688 334.941406 L 266.386719 337.40625 L 267.957031 334.941406 L 269.136719 334.941406 L 266.984375 338.011719 L 269.269531 341.28125 Z M 268.09375 341.28125 "/>
<path style=" stroke:none;fill-rule:nonzero;fill:rgb(0%,0%,0%);fill-opacity:1;" d="M 12.960938 172.261719 L 13.074219 172.304688 L 13.183594 172.351562 L 13.292969 172.394531 L 13.402344 172.441406 L 13.503906 172.488281 L 13.605469 172.53125 L 13.707031 172.578125 L 13.804688 172.625 L 13.992188 172.71875 L 14.171875 172.8125 L 14.257812 172.859375 L 14.339844 172.910156 L 14.496094 173.011719 L 14.570312 173.066406 L 14.710938 173.175781 L 14.777344 173.234375 L 14.902344 173.351562 L 14.960938 173.410156 L 15.011719 173.472656 L 15.066406 173.535156 L 15.160156 173.667969 L 15.238281 173.800781 L 15.273438 173.871094 L 15.308594 173.945312 L 15.335938 174.015625 L 15.363281 174.09375 L 15.386719 174.171875 L 15.40625 174.25 L 15.421875 174.332031 L 15.433594 174.417969 L 15.449219 174.589844 L 15.449219 174.871094 L 15.445312 174.910156 L 15.445312 174.945312 L 15.441406 174.980469 L 15.441406 175.015625 L 15.4375 175.050781 L 15.4375 175.085938 L 15.433594 175.117188 L 15.425781 175.1875 L 15.417969 175.222656 L 15.414062 175.261719 L 15.40625 175.296875 L 15.402344 175.332031 L 15.394531 175.371094 L 15.386719 175.40625 L 14.59375 175.40625 L 14.597656 175.386719 L 14.605469 175.339844 L 14.605469 175.3125 L 14.609375 175.289062 L 14.613281 175.261719 L 14.613281 175.238281 L 14.617188 175.210938 L 14.617188 175.15625 L 14.621094 175.128906 L 14.621094 175.101562 L 14.625 175.074219 L 14.625 175.050781 L 14.628906 175.023438 L 14.628906 174.914062 L 14.625 174.824219 L 14.617188 174.734375 L 14.597656 174.644531 L 14.574219 174.554688 L 14.542969 174.46875 L 14.503906 174.382812 L 14.460938 174.296875 L 14.410156 174.214844 L 14.351562 174.132812 L 14.285156 174.054688 L 14.210938 173.976562 L 14.128906 173.898438 L 14.039062 173.824219 L 13.941406 173.75 L 13.835938 173.679688 L 13.722656 173.613281 L 13.597656 173.542969 L 13.46875 173.480469 L 13.328125 173.417969 L 13.183594 173.355469 L 12.929688 173.257812 L 6.621094 175.769531 L 6.621094 174.644531 L 10.125 173.308594 L 10.15625 173.296875 L 10.226562 173.273438 L 10.265625 173.257812 L 10.308594 173.242188 L 10.351562 173.230469 L 10.398438 173.214844 L 10.445312 173.195312 L 10.546875 173.164062 L 10.597656 173.144531 L 10.652344 173.125 L 10.703125 173.109375 L 10.757812 173.089844 L 10.808594 173.070312 L 10.863281 173.054688 L 10.914062 173.035156 L 10.96875 173.015625 L 11.019531 173 L 11.074219 172.980469 L 11.125 172.964844 L 11.226562 172.925781 L 11.277344 172.910156 L 11.417969 172.863281 L 11.546875 172.816406 L 11.589844 172.804688 L 11.660156 172.78125 L 11.691406 172.769531 L 11.71875 172.761719 L 11.765625 172.746094 L 11.785156 172.742188 L 11.800781 172.738281 L 11.8125 172.734375 L 11.78125 172.726562 L 11.761719 172.722656 L 11.742188 172.714844 L 11.714844 172.707031 L 11.691406 172.699219 L 11.597656 172.664062 L 11.519531 172.640625 L 11.441406 172.609375 L 11.398438 172.59375 L 11.355469 172.582031 L 11.269531 172.550781 L 11.222656 172.535156 L 11.179688 172.515625 L 11.085938 172.484375 L 11.039062 172.464844 L 10.992188 172.449219 L 10.945312 172.429688 L 10.894531 172.414062 L 10.847656 172.394531 L 10.800781 172.378906 L 10.753906 172.359375 L 10.707031 172.34375 L 10.65625 172.324219 L 10.5625 172.292969 L 10.519531 172.273438 L 10.476562 172.257812 L 10.433594 172.246094 L 10.390625 172.230469 L 10.351562 172.214844 L 10.3125 172.203125 L 10.242188 172.179688 L 6.621094 170.9375 L 6.621094 169.824219 Z M 12.960938 172.261719 "/>
</g>
</svg>
