<?xml version="1.0" encoding="UTF-8"?>
<svg xmlns="http://www.w3.org/2000/svg" xmlns:xlink="http://www.w3.org/1999/xlink" width="468pt" height="432pt" viewBox="0 0 468 432" version="1.1">
<defs>
<clipPath id="clip1">
  <path d="M 30.824219 5.480469 L 462.519531 5.480469 L 462.519531 401.121094 L 30.824219 401.121094 Z M 30.824219 5.480469 "/>
</clipPath>
<clipPath id="clip2">
  <path d="M 30.824219 386 L 462.519531 386 L 462.519531 388 L 30.824219 388 Z M 30.824219 386 "/>
</clipPath>
<clipPath id="clip3">
  <path d="M 30.824219 316 L 462.519531 316 L 462.519531 317 L 30.824219 317 Z M 30.824219 316 "/>
</clipPath>
<clipPath id="clip4">
  <path d="M 30.824219 245 L 462.519531 245 L 462.519531 246 L 30.824219 246 Z M 30.824219 245 "/>
</clipPath>
<clipPath id="clip5">
  <path d="M 30.824219 174 L 462.519531 174 L 462.519531 176 L 30.824219 176 Z M 30.824219 174 "/>
</clipPath>
<clipPath id="clip6">
  <path d="M 30.824219 104 L 462.519531 104 L 462.519531 105 L 30.824219 105 Z M 30.824219 104 "/>
</clipPath>
<clipPath id="clip7">
  <path d="M 30.824219 33 L 462.519531 33 L 462.519531 34 L 30.824219 34 Z M 30.824219 33 "/>
</clipPath>
<clipPath id="clip8">
  <path d="M 109 5.480469 L 111 5.480469 L 111 401.121094 L 109 401.121094 Z M 109 5.480469 "/>
</clipPath>
<clipPath id="clip9">
  <path d="M 200 5.480469 L 202 5.480469 L 202 401.121094 L 200 401.121094 Z M 200 5.480469 "/>
</clipPath>
<clipPath id="clip10">
  <path d="M 291 5.480469 L 293 5.480469 L 293 401.121094 L 291 401.121094 Z M 291 5.480469 "/>
</clipPath>
<clipPath id="clip11">
  <path d="M 383 5.480469 L 384 5.480469 L 384 401.121094 L 383 401.121094 Z M 383 5.480469 "/>
</clipPath>
<clipPath id="clip12">
  <path d="M 30.824219 351 L 462.519531 351 L 462.519531 353 L 30.824219 353 Z M 30.824219 351 "/>
</clipPath>
<clipPath id="clip13">
  <path d="M 30.824219 280 L 462.519531 280 L 462.519531 282 L 30.824219 282 Z M 30.824219 280 "/>
</clipPath>
<clipPath id="clip14">
  <path d="M 30.824219 209 L 462.519531 209 L 462.519531 211 L 30.824219 211 Z M 30.824219 209 "/>
</clipPath>
<clipPath id="clip15">
  <path d="M 30.824219 139 L 462.519531 139 L 462.519531 141 L 30.824219 141 Z M 30.824219 139 "/>
</clipPath>
<clipPath id="clip16">
  <path d="M 30.824219 68 L 462.519531 68 L 462.519531 70 L 30.824219 70 Z M 30.824219 68 "/>
</clipPath>
<clipPath id="clip17">
  <path d="M 63 5.480469 L 66 5.480469 L 66 401.121094 L 63 401.121094 Z M 63 5.480469 "/>
</clipPath>
<clipPath id="clip18">
  <path d="M 155 5.480469 L 157 5.480469 L 157 401.121094 L 155 401.121094 Z M 155 5.480469 "/>
</clipPath>
<clipPath id="clip19">
  <path d="M 246 5.480469 L 248 5.480469 L 248 401.121094 L 246 401.121094 Z M 246 5.480469 "/>
</clipPath>
<clipPath id="clip20">
  <path d="M 337 5.480469 L 339 5.480469 L 339 401.121094 L 337 401.121094 Z M 337 5.480469 "/>
</clipPath>
<clipPath id="clip21">
  <path d="M 428 5.480469 L 430 5.480469 L 430 401.121094 L 428 401.121094 Z M 428 5.480469 "/>
</clipPath>
</defs>
<g id="surface69">
<rect x="0" y="0" width="468" height="432" style="fill:rgb(100%,100%,100%);fill-opacity:1;stroke:none;"/>
<path style="fill:none;stroke-width:1.066978;stroke-linecap:round;stroke-linejoin:round;stroke:rgb(100%,100%,100%);stroke-opacity:1;stroke-miterlimit:10;" d="M 0 432 L 468 432 L 468 0 L 0 0 Z M 0 432 "/>
<g clip-path="url(#clip1)" clip-rule="nonzero">
<path style=" stroke:none;fill-rule:nonzero;fill:rgb(92.156863%,92.156863%,92.156863%);fill-opacity:1;" d="M 30.824219 401.117188 L 462.519531 401.117188 L 462.519531 5.476562 L 30.824219 5.476562 Z M 30.824219 401.117188 "/>
</g>
<g clip-path="url(#clip2)" clip-rule="nonzero">
<path style="fill:none;stroke-width:0.533489;stroke-linecap:butt;stroke-linejoin:round;stroke:rgb(100%,100%,100%);stroke-opacity:1;stroke-miterlimit:10;" d="M 30.824219 387.117188 L 462.519531 387.117188 "/>
</g>
<g clip-path="url(#clip3)" clip-rule="nonzero">
<path style="fill:none;stroke-width:0.533489;stroke-linecap:butt;stroke-linejoin:round;stroke:rgb(100%,100%,100%);stroke-opacity:1;stroke-miterlimit:10;" d="M 30.824219 316.421875 L 462.519531 316.421875 "/>
</g>
<g clip-path="url(#clip4)" clip-rule="nonzero">
<path style="fill:none;stroke-width:0.533489;stroke-linecap:butt;stroke-linejoin:round;stroke:rgb(100%,100%,100%);stroke-opacity:1;stroke-miterlimit:10;" d="M 30.824219 245.726562 L 462.519531 245.726562 "/>
</g>
<g clip-path="url(#clip5)" clip-rule="nonzero">
<path style="fill:none;stroke-width:0.533489;stroke-linecap:butt;stroke-linejoin:round;stroke:rgb(100%,100%,100%);stroke-opacity:1;stroke-miterlimit:10;" d="M 30.824219 175.03125 L 462.519531 175.03125 "/>
</g>
<g clip-path="url(#clip6)" clip-rule="nonzero">
<path style="fill:none;stroke-width:0.533489;stroke-linecap:butt;stroke-linejoin:round;stroke:rgb(100%,100%,100%);stroke-opacity:1;stroke-miterlimit:10;" d="M 30.824219 104.335938 L 462.519531 104.335938 "/>
</g>
<g clip-path="url(#clip7)" clip-rule="nonzero">
<path style="fill:none;stroke-width:0.533489;stroke-linecap:butt;stroke-linejoin:round;stroke:rgb(100%,100%,100%);stroke-opacity:1;stroke-miterlimit:10;" d="M 30.824219 33.640625 L 462.519531 33.640625 "/>
</g>
<g clip-path="url(#clip8)" clip-rule="nonzero">
<path style="fill:none;stroke-width:0.533489;stroke-linecap:butt;stroke-linejoin:round;stroke:rgb(100%,100%,100%);stroke-opacity:1;stroke-miterlimit:10;" d="M 110.019531 401.117188 L 110.019531 5.480469 "/>
</g>
<g clip-path="url(#clip9)" clip-rule="nonzero">
<path style="fill:none;stroke-width:0.533489;stroke-linecap:butt;stroke-linejoin:round;stroke:rgb(100%,100%,100%);stroke-opacity:1;stroke-miterlimit:10;" d="M 201.121094 401.117188 L 201.121094 5.480469 "/>
</g>
<g clip-path="url(#clip10)" clip-rule="nonzero">
<path style="fill:none;stroke-width:0.533489;stroke-linecap:butt;stroke-linejoin:round;stroke:rgb(100%,100%,100%);stroke-opacity:1;stroke-miterlimit:10;" d="M 292.226562 401.117188 L 292.226562 5.480469 "/>
</g>
<g clip-path="url(#clip11)" clip-rule="nonzero">
<path style="fill:none;stroke-width:0.533489;stroke-linecap:butt;stroke-linejoin:round;stroke:rgb(100%,100%,100%);stroke-opacity:1;stroke-miterlimit:10;" d="M 383.328125 401.117188 L 383.328125 5.480469 "/>
</g>
<g clip-path="url(#clip12)" clip-rule="nonzero">
<path style="fill:none;stroke-width:1.066978;stroke-linecap:butt;stroke-linejoin:round;stroke:rgb(100%,100%,100%);stroke-opacity:1;stroke-miterlimit:10;" d="M 30.824219 351.769531 L 462.519531 351.769531 "/>
</g>
<g clip-path="url(#clip13)" clip-rule="nonzero">
<path style="fill:none;stroke-width:1.066978;stroke-linecap:butt;stroke-linejoin:round;stroke:rgb(100%,100%,100%);stroke-opacity:1;stroke-miterlimit:10;" d="M 30.824219 281.074219 L 462.519531 281.074219 "/>
</g>
<g clip-path="url(#clip14)" clip-rule="nonzero">
<path style="fill:none;stroke-width:1.066978;stroke-linecap:butt;stroke-linejoin:round;stroke:rgb(100%,100%,100%);stroke-opacity:1;stroke-miterlimit:10;" d="M 30.824219 210.378906 L 462.519531 210.378906 "/>
</g>
<g clip-path="url(#clip15)" clip-rule="nonzero">
<path style="fill:none;stroke-width:1.066978;stroke-linecap:butt;stroke-linejoin:round;stroke:rgb(100%,100%,100%);stroke-opacity:1;stroke-miterlimit:10;" d="M 30.824219 139.683594 L 462.519531 139.683594 "/>
</g>
<g clip-path="url(#clip16)" clip-rule="nonzero">
<path style="fill:none;stroke-width:1.066978;stroke-linecap:butt;stroke-linejoin:round;stroke:rgb(100%,100%,100%);stroke-opacity:1;stroke-miterlimit:10;" d="M 30.824219 68.988281 L 462.519531 68.988281 "/>
</g>
<g clip-path="url(#clip17)" clip-rule="nonzero">
<path style="fill:none;stroke-width:1.066978;stroke-linecap:butt;stroke-linejoin:round;stroke:rgb(100%,100%,100%);stroke-opacity:1;stroke-miterlimit:10;" d="M 64.46875 401.117188 L 64.46875 5.480469 "/>
</g>
<g clip-path="url(#clip18)" clip-rule="nonzero">
<path style="fill:none;stroke-width:1.066978;stroke-linecap:butt;stroke-linejoin:round;stroke:rgb(100%,100%,100%);stroke-opacity:1;stroke-miterlimit:10;" d="M 155.570312 401.117188 L 155.570312 5.480469 "/>
</g>
<g clip-path="url(#clip19)" clip-rule="nonzero">
<path style="fill:none;stroke-width:1.066978;stroke-linecap:butt;stroke-linejoin:round;stroke:rgb(100%,100%,100%);stroke-opacity:1;stroke-miterlimit:10;" d="M 246.671875 401.117188 L 246.671875 5.480469 "/>
</g>
<g clip-path="url(#clip20)" clip-rule="nonzero">
<path style="fill:none;stroke-width:1.066978;stroke-linecap:butt;stroke-linejoin:round;stroke:rgb(100%,100%,100%);stroke-opacity:1;stroke-miterlimit:10;" d="M 337.777344 401.117188 L 337.777344 5.480469 "/>
</g>
<g clip-path="url(#clip21)" clip-rule="nonzero">
<path style="fill:none;stroke-width:1.066978;stroke-linecap:butt;stroke-linejoin:round;stroke:rgb(100%,100%,100%);stroke-opacity:1;stroke-miterlimit:10;" d="M 428.878906 401.117188 L 428.878906 5.480469 "/>
</g>
<path style="fill-rule:nonzero;fill:rgb(21.568627%,6.666667%,25.882353%);fill-opacity:1;stroke-width:0.708661;stroke-linecap:round;stroke-linejoin:round;stroke:rgb(21.568627%,6.666667%,25.882353%);stroke-opacity:1;stroke-miterlimit:10;" d="M 52.402344 368.582031 C 52.402344 371.191406 48.492188 371.191406 48.492188 368.582031 C 48.492188 365.976562 52.402344 365.976562 52.402344 368.582031 "/>
<path style="fill-rule:nonzero;fill:rgb(21.568627%,6.666667%,25.882353%);fill-opacity:1;stroke-width:0.708661;stroke-linecap:round;stroke-linejoin:round;stroke:rgb(21.568627%,6.666667%,25.882353%);stroke-opacity:1;stroke-miterlimit:10;" d="M 95.945312 314.367188 C 95.945312 316.972656 92.035156 316.972656 92.035156 314.367188 C 92.035156 311.757812 95.945312 311.757812 95.945312 314.367188 "/>
<path style="fill-rule:nonzero;fill:rgb(21.568627%,6.666667%,25.882353%);fill-opacity:1;stroke-width:0.708661;stroke-linecap:round;stroke-linejoin:round;stroke:rgb(21.568627%,6.666667%,25.882353%);stroke-opacity:1;stroke-miterlimit:10;" d="M 119.460938 309.601562 C 119.460938 312.210938 115.550781 312.210938 115.550781 309.601562 C 115.550781 306.996094 119.460938 306.996094 119.460938 309.601562 "/>
<path style="fill-rule:nonzero;fill:rgb(21.568627%,6.666667%,25.882353%);fill-opacity:1;stroke-width:0.708661;stroke-linecap:round;stroke-linejoin:round;stroke:rgb(21.568627%,6.666667%,25.882353%);stroke-opacity:1;stroke-miterlimit:10;" d="M 136.582031 308.816406 C 136.582031 311.421875 132.675781 311.421875 132.675781 308.816406 C 132.675781 306.210938 136.582031 306.210938 136.582031 308.816406 "/>
<path style="fill-rule:nonzero;fill:rgb(21.568627%,6.666667%,25.882353%);fill-opacity:1;stroke-width:0.708661;stroke-linecap:round;stroke-linejoin:round;stroke:rgb(21.568627%,6.666667%,25.882353%);stroke-opacity:1;stroke-miterlimit:10;" d="M 150.464844 304.699219 C 150.464844 307.304688 146.554688 307.304688 146.554688 304.699219 C 146.554688 302.09375 150.464844 302.09375 150.464844 304.699219 "/>
<path style="fill-rule:nonzero;fill:rgb(21.568627%,6.666667%,25.882353%);fill-opacity:1;stroke-width:0.708661;stroke-linecap:round;stroke-linejoin:round;stroke:rgb(21.568627%,6.666667%,25.882353%);stroke-opacity:1;stroke-miterlimit:10;" d="M 162.375 280.140625 C 162.375 282.746094 158.464844 282.746094 158.464844 280.140625 C 158.464844 277.535156 162.375 277.535156 162.375 280.140625 "/>
<path style="fill-rule:nonzero;fill:rgb(21.568627%,6.666667%,25.882353%);fill-opacity:1;stroke-width:0.708661;stroke-linecap:round;stroke-linejoin:round;stroke:rgb(21.568627%,6.666667%,25.882353%);stroke-opacity:1;stroke-miterlimit:10;" d="M 172.964844 277.097656 C 172.964844 279.703125 169.054688 279.703125 169.054688 277.097656 C 169.054688 274.492188 172.964844 274.492188 172.964844 277.097656 "/>
<path style="fill-rule:nonzero;fill:rgb(21.568627%,6.666667%,25.882353%);fill-opacity:1;stroke-width:0.708661;stroke-linecap:round;stroke-linejoin:round;stroke:rgb(21.568627%,6.666667%,25.882353%);stroke-opacity:1;stroke-miterlimit:10;" d="M 182.621094 275.472656 C 182.621094 278.082031 178.710938 278.082031 178.710938 275.472656 C 178.710938 272.867188 182.621094 272.867188 182.621094 275.472656 "/>
<path style="fill-rule:nonzero;fill:rgb(21.568627%,6.666667%,25.882353%);fill-opacity:1;stroke-width:0.708661;stroke-linecap:round;stroke-linejoin:round;stroke:rgb(21.568627%,6.666667%,25.882353%);stroke-opacity:1;stroke-miterlimit:10;" d="M 191.589844 254.328125 C 191.589844 256.933594 187.679688 256.933594 187.679688 254.328125 C 187.679688 251.722656 191.589844 251.722656 191.589844 254.328125 "/>
<path style="fill-rule:nonzero;fill:rgb(21.568627%,6.666667%,25.882353%);fill-opacity:1;stroke-width:0.708661;stroke-linecap:round;stroke-linejoin:round;stroke:rgb(21.568627%,6.666667%,25.882353%);stroke-opacity:1;stroke-miterlimit:10;" d="M 200.03125 252.605469 C 200.03125 255.210938 196.125 255.210938 196.125 252.605469 C 196.125 250 200.03125 250 200.03125 252.605469 "/>
<path style="fill-rule:nonzero;fill:rgb(21.568627%,6.666667%,25.882353%);fill-opacity:1;stroke-width:0.708661;stroke-linecap:round;stroke-linejoin:round;stroke:rgb(21.568627%,6.666667%,25.882353%);stroke-opacity:1;stroke-miterlimit:10;" d="M 208.078125 244.375 C 208.078125 246.980469 204.167969 246.980469 204.167969 244.375 C 204.167969 241.769531 208.078125 241.769531 208.078125 244.375 "/>
<path style="fill-rule:nonzero;fill:rgb(21.568627%,6.666667%,25.882353%);fill-opacity:1;stroke-width:0.708661;stroke-linecap:round;stroke-linejoin:round;stroke:rgb(21.568627%,6.666667%,25.882353%);stroke-opacity:1;stroke-miterlimit:10;" d="M 215.820312 238.105469 C 215.820312 240.710938 211.910156 240.710938 211.910156 238.105469 C 211.910156 235.5 215.820312 235.5 215.820312 238.105469 "/>
<path style="fill-rule:nonzero;fill:rgb(21.568627%,6.666667%,25.882353%);fill-opacity:1;stroke-width:0.708661;stroke-linecap:round;stroke-linejoin:round;stroke:rgb(21.568627%,6.666667%,25.882353%);stroke-opacity:1;stroke-miterlimit:10;" d="M 223.328125 236.355469 C 223.328125 238.964844 219.421875 238.964844 219.421875 236.355469 C 219.421875 233.75 223.328125 233.75 223.328125 236.355469 "/>
<path style="fill-rule:nonzero;fill:rgb(21.568627%,6.666667%,25.882353%);fill-opacity:1;stroke-width:0.708661;stroke-linecap:round;stroke-linejoin:round;stroke:rgb(21.568627%,6.666667%,25.882353%);stroke-opacity:1;stroke-miterlimit:10;" d="M 230.671875 236.304688 C 230.671875 238.914062 226.761719 238.914062 226.761719 236.304688 C 226.761719 233.699219 230.671875 233.699219 230.671875 236.304688 "/>
<path style="fill-rule:nonzero;fill:rgb(21.568627%,6.666667%,25.882353%);fill-opacity:1;stroke-width:0.708661;stroke-linecap:round;stroke-linejoin:round;stroke:rgb(21.568627%,6.666667%,25.882353%);stroke-opacity:1;stroke-miterlimit:10;" d="M 237.898438 212.726562 C 237.898438 215.335938 233.988281 215.335938 233.988281 212.726562 C 233.988281 210.121094 237.898438 210.121094 237.898438 212.726562 "/>
<path style="fill-rule:nonzero;fill:rgb(21.568627%,6.666667%,25.882353%);fill-opacity:1;stroke-width:0.708661;stroke-linecap:round;stroke-linejoin:round;stroke:rgb(21.568627%,6.666667%,25.882353%);stroke-opacity:1;stroke-miterlimit:10;" d="M 245.058594 206.179688 C 245.058594 208.789062 241.148438 208.789062 241.148438 206.179688 C 241.148438 203.574219 245.058594 203.574219 245.058594 206.179688 "/>
<path style="fill-rule:nonzero;fill:rgb(21.568627%,6.666667%,25.882353%);fill-opacity:1;stroke-width:0.708661;stroke-linecap:round;stroke-linejoin:round;stroke:rgb(21.568627%,6.666667%,25.882353%);stroke-opacity:1;stroke-miterlimit:10;" d="M 252.195312 205.480469 C 252.195312 208.085938 248.289062 208.085938 248.289062 205.480469 C 248.289062 202.871094 252.195312 202.871094 252.195312 205.480469 "/>
<path style="fill-rule:nonzero;fill:rgb(21.568627%,6.666667%,25.882353%);fill-opacity:1;stroke-width:0.708661;stroke-linecap:round;stroke-linejoin:round;stroke:rgb(21.568627%,6.666667%,25.882353%);stroke-opacity:1;stroke-miterlimit:10;" d="M 259.355469 184.277344 C 259.355469 186.882812 255.449219 186.882812 255.449219 184.277344 C 255.449219 181.671875 259.355469 181.671875 259.355469 184.277344 "/>
<path style="fill-rule:nonzero;fill:rgb(21.568627%,6.666667%,25.882353%);fill-opacity:1;stroke-width:0.708661;stroke-linecap:round;stroke-linejoin:round;stroke:rgb(21.568627%,6.666667%,25.882353%);stroke-opacity:1;stroke-miterlimit:10;" d="M 266.585938 180.230469 C 266.585938 182.835938 262.675781 182.835938 262.675781 180.230469 C 262.675781 177.625 266.585938 177.625 266.585938 180.230469 "/>
<path style="fill-rule:nonzero;fill:rgb(21.568627%,6.666667%,25.882353%);fill-opacity:1;stroke-width:0.708661;stroke-linecap:round;stroke-linejoin:round;stroke:rgb(21.568627%,6.666667%,25.882353%);stroke-opacity:1;stroke-miterlimit:10;" d="M 273.925781 178.03125 C 273.925781 180.636719 270.015625 180.636719 270.015625 178.03125 C 270.015625 175.421875 273.925781 175.421875 273.925781 178.03125 "/>
<path style="fill-rule:nonzero;fill:rgb(21.568627%,6.666667%,25.882353%);fill-opacity:1;stroke-width:0.708661;stroke-linecap:round;stroke-linejoin:round;stroke:rgb(21.568627%,6.666667%,25.882353%);stroke-opacity:1;stroke-miterlimit:10;" d="M 281.4375 175.425781 C 281.4375 178.03125 277.527344 178.03125 277.527344 175.425781 C 277.527344 172.816406 281.4375 172.816406 281.4375 175.425781 "/>
<path style="fill-rule:nonzero;fill:rgb(21.568627%,6.666667%,25.882353%);fill-opacity:1;stroke-width:0.708661;stroke-linecap:round;stroke-linejoin:round;stroke:rgb(21.568627%,6.666667%,25.882353%);stroke-opacity:1;stroke-miterlimit:10;" d="M 289.175781 166.9375 C 289.175781 169.542969 285.269531 169.542969 285.269531 166.9375 C 285.269531 164.332031 289.175781 164.332031 289.175781 166.9375 "/>
<path style="fill-rule:nonzero;fill:rgb(21.568627%,6.666667%,25.882353%);fill-opacity:1;stroke-width:0.708661;stroke-linecap:round;stroke-linejoin:round;stroke:rgb(21.568627%,6.666667%,25.882353%);stroke-opacity:1;stroke-miterlimit:10;" d="M 297.222656 162.125 C 297.222656 164.730469 293.3125 164.730469 293.3125 162.125 C 293.3125 159.519531 297.222656 159.519531 297.222656 162.125 "/>
<path style="fill-rule:nonzero;fill:rgb(21.568627%,6.666667%,25.882353%);fill-opacity:1;stroke-width:0.708661;stroke-linecap:round;stroke-linejoin:round;stroke:rgb(21.568627%,6.666667%,25.882353%);stroke-opacity:1;stroke-miterlimit:10;" d="M 305.667969 148.859375 C 305.667969 151.464844 301.757812 151.464844 301.757812 148.859375 C 301.757812 146.25 305.667969 146.25 305.667969 148.859375 "/>
<path style="fill-rule:nonzero;fill:rgb(21.568627%,6.666667%,25.882353%);fill-opacity:1;stroke-width:0.708661;stroke-linecap:round;stroke-linejoin:round;stroke:rgb(21.568627%,6.666667%,25.882353%);stroke-opacity:1;stroke-miterlimit:10;" d="M 314.632812 141.355469 C 314.632812 143.964844 310.722656 143.964844 310.722656 141.355469 C 310.722656 138.75 314.632812 138.75 314.632812 141.355469 "/>
<path style="fill-rule:nonzero;fill:rgb(21.568627%,6.666667%,25.882353%);fill-opacity:1;stroke-width:0.708661;stroke-linecap:round;stroke-linejoin:round;stroke:rgb(21.568627%,6.666667%,25.882353%);stroke-opacity:1;stroke-miterlimit:10;" d="M 324.289062 140.996094 C 324.289062 143.605469 320.378906 143.605469 320.378906 140.996094 C 320.378906 138.390625 324.289062 138.390625 324.289062 140.996094 "/>
<path style="fill-rule:nonzero;fill:rgb(21.568627%,6.666667%,25.882353%);fill-opacity:1;stroke-width:0.708661;stroke-linecap:round;stroke-linejoin:round;stroke:rgb(21.568627%,6.666667%,25.882353%);stroke-opacity:1;stroke-miterlimit:10;" d="M 334.882812 137.441406 C 334.882812 140.046875 330.972656 140.046875 330.972656 137.441406 C 330.972656 134.835938 334.882812 134.835938 334.882812 137.441406 "/>
<path style="fill-rule:nonzero;fill:rgb(21.568627%,6.666667%,25.882353%);fill-opacity:1;stroke-width:0.708661;stroke-linecap:round;stroke-linejoin:round;stroke:rgb(21.568627%,6.666667%,25.882353%);stroke-opacity:1;stroke-miterlimit:10;" d="M 346.792969 129.285156 C 346.792969 131.894531 342.882812 131.894531 342.882812 129.285156 C 342.882812 126.679688 346.792969 126.679688 346.792969 129.285156 "/>
<path style="fill-rule:nonzero;fill:rgb(21.568627%,6.666667%,25.882353%);fill-opacity:1;stroke-width:0.708661;stroke-linecap:round;stroke-linejoin:round;stroke:rgb(21.568627%,6.666667%,25.882353%);stroke-opacity:1;stroke-miterlimit:10;" d="M 360.671875 128.78125 C 360.671875 131.386719 356.761719 131.386719 356.761719 128.78125 C 356.761719 126.175781 360.671875 126.175781 360.671875 128.78125 "/>
<path style="fill-rule:nonzero;fill:rgb(21.568627%,6.666667%,25.882353%);fill-opacity:1;stroke-width:0.708661;stroke-linecap:round;stroke-linejoin:round;stroke:rgb(21.568627%,6.666667%,25.882353%);stroke-opacity:1;stroke-miterlimit:10;" d="M 377.792969 128.707031 C 377.792969 131.316406 373.882812 131.316406 373.882812 128.707031 C 373.882812 126.101562 377.792969 126.101562 377.792969 128.707031 "/>
<path style="fill-rule:nonzero;fill:rgb(21.568627%,6.666667%,25.882353%);fill-opacity:1;stroke-width:0.708661;stroke-linecap:round;stroke-linejoin:round;stroke:rgb(21.568627%,6.666667%,25.882353%);stroke-opacity:1;stroke-miterlimit:10;" d="M 401.3125 103.367188 C 401.3125 105.976562 397.402344 105.976562 397.402344 103.367188 C 397.402344 100.761719 401.3125 100.761719 401.3125 103.367188 "/>
<path style="fill-rule:nonzero;fill:rgb(21.568627%,6.666667%,25.882353%);fill-opacity:1;stroke-width:0.708661;stroke-linecap:round;stroke-linejoin:round;stroke:rgb(21.568627%,6.666667%,25.882353%);stroke-opacity:1;stroke-miterlimit:10;" d="M 444.851562 101.03125 C 444.851562 103.636719 440.941406 103.636719 440.941406 101.03125 C 440.941406 98.425781 444.851562 98.425781 444.851562 101.03125 "/>
<path style="fill:none;stroke-width:1.066978;stroke-linecap:butt;stroke-linejoin:round;stroke:rgb(0%,0%,0%);stroke-opacity:1;stroke-miterlimit:10;" d="M 50.449219 383.132812 L 442.898438 23.464844 "/>
<path style=" stroke:none;fill-rule:nonzero;fill:rgb(30.196078%,30.196078%,30.196078%);fill-opacity:1;" d="M 18.460938 352.800781 L 18.460938 352.113281 L 20.609375 352.113281 L 20.609375 352.800781 Z M 18.460938 352.800781 "/>
<path style=" stroke:none;fill-rule:nonzero;fill:rgb(30.196078%,30.196078%,30.196078%);fill-opacity:1;" d="M 21.441406 354.796875 L 21.441406 354.25 L 21.488281 354.148438 L 21.535156 354.054688 L 21.582031 353.957031 L 21.632812 353.867188 L 21.6875 353.777344 L 21.738281 353.691406 L 21.796875 353.605469 L 21.914062 353.441406 L 21.976562 353.363281 L 22.039062 353.289062 L 22.105469 353.210938 L 22.167969 353.140625 L 22.234375 353.066406 L 22.300781 352.996094 L 22.367188 352.929688 L 22.433594 352.859375 L 22.503906 352.796875 L 22.574219 352.730469 L 22.640625 352.667969 L 22.78125 352.542969 L 22.851562 352.484375 L 22.917969 352.425781 L 22.988281 352.367188 L 23.054688 352.308594 L 23.125 352.253906 L 23.191406 352.195312 L 23.261719 352.140625 L 23.328125 352.089844 L 23.398438 352.035156 L 23.464844 351.980469 L 23.527344 351.929688 L 23.59375 351.875 L 23.65625 351.820312 L 23.71875 351.769531 L 23.835938 351.660156 L 23.890625 351.609375 L 23.949219 351.554688 L 24 351.5 L 24.054688 351.449219 L 24.101562 351.394531 L 24.152344 351.339844 L 24.195312 351.28125 L 24.238281 351.226562 L 24.28125 351.167969 L 24.320312 351.113281 L 24.390625 350.996094 L 24.421875 350.9375 L 24.453125 350.875 L 24.476562 350.816406 L 24.5 350.75 L 24.519531 350.683594 L 24.535156 350.617188 L 24.546875 350.550781 L 24.5625 350.410156 L 24.5625 350.285156 L 24.558594 350.234375 L 24.550781 350.140625 L 24.542969 350.09375 L 24.535156 350.050781 L 24.523438 350.003906 L 24.511719 349.964844 L 24.5 349.921875 L 24.46875 349.84375 L 24.453125 349.808594 L 24.433594 349.769531 L 24.414062 349.734375 L 24.34375 349.640625 L 24.316406 349.609375 L 24.261719 349.554688 L 24.230469 349.527344 L 24.136719 349.457031 L 24.066406 349.417969 L 24.027344 349.398438 L 23.949219 349.367188 L 23.910156 349.355469 L 23.867188 349.34375 L 23.828125 349.332031 L 23.785156 349.320312 L 23.738281 349.3125 L 23.695312 349.304688 L 23.648438 349.296875 L 23.554688 349.289062 L 23.507812 349.289062 L 23.457031 349.285156 L 23.410156 349.289062 L 23.367188 349.289062 L 23.320312 349.292969 L 23.277344 349.296875 L 23.234375 349.304688 L 23.1875 349.308594 L 23.144531 349.316406 L 23.101562 349.328125 L 23.0625 349.339844 L 23.019531 349.351562 L 22.980469 349.363281 L 22.902344 349.394531 L 22.863281 349.414062 L 22.757812 349.472656 L 22.722656 349.496094 L 22.660156 349.542969 L 22.597656 349.597656 L 22.570312 349.628906 L 22.539062 349.65625 L 22.515625 349.691406 L 22.488281 349.722656 L 22.417969 349.828125 L 22.359375 349.945312 L 22.34375 349.984375 L 22.328125 350.027344 L 22.316406 350.070312 L 22.28125 350.210938 L 22.273438 350.257812 L 22.269531 350.308594 L 21.476562 350.238281 L 21.484375 350.171875 L 21.496094 350.105469 L 21.507812 350.042969 L 21.523438 349.980469 L 21.542969 349.917969 L 21.5625 349.859375 L 21.582031 349.796875 L 21.628906 349.679688 L 21.65625 349.621094 L 21.6875 349.566406 L 21.71875 349.507812 L 21.753906 349.457031 L 21.789062 349.402344 L 21.867188 349.300781 L 21.953125 349.207031 L 22.046875 349.121094 L 22.097656 349.078125 L 22.152344 349.035156 L 22.207031 348.996094 L 22.265625 348.957031 L 22.324219 348.921875 L 22.382812 348.890625 L 22.445312 348.859375 L 22.511719 348.828125 L 22.578125 348.800781 L 22.644531 348.777344 L 22.71875 348.75 L 22.867188 348.710938 L 22.945312 348.695312 L 23.023438 348.683594 L 23.105469 348.671875 L 23.191406 348.660156 L 23.277344 348.65625 L 23.367188 348.652344 L 23.546875 348.652344 L 23.71875 348.660156 L 23.804688 348.667969 L 23.882812 348.675781 L 23.964844 348.691406 L 24.042969 348.703125 L 24.117188 348.71875 L 24.191406 348.738281 L 24.261719 348.757812 L 24.332031 348.78125 L 24.398438 348.804688 L 24.464844 348.832031 L 24.527344 348.859375 L 24.585938 348.890625 L 24.644531 348.925781 L 24.753906 348.996094 L 24.804688 349.035156 L 24.855469 349.078125 L 24.949219 349.164062 L 24.992188 349.210938 L 25.070312 349.3125 L 25.105469 349.363281 L 25.140625 349.417969 L 25.203125 349.535156 L 25.226562 349.597656 L 25.253906 349.660156 L 25.273438 349.722656 L 25.292969 349.789062 L 25.3125 349.859375 L 25.335938 350 L 25.34375 350.074219 L 25.351562 350.152344 L 25.355469 350.230469 L 25.355469 350.371094 L 25.347656 350.488281 L 25.339844 350.546875 L 25.316406 350.664062 L 25.300781 350.722656 L 25.285156 350.777344 L 25.265625 350.835938 L 25.246094 350.890625 L 25.199219 351 L 25.175781 351.050781 L 25.148438 351.105469 L 25.117188 351.15625 L 25.089844 351.210938 L 25.058594 351.261719 L 24.917969 351.464844 L 24.878906 351.511719 L 24.839844 351.5625 L 24.800781 351.609375 L 24.757812 351.660156 L 24.671875 351.753906 L 24.484375 351.941406 L 24.433594 351.988281 L 24.386719 352.035156 L 24.335938 352.078125 L 24.234375 352.171875 L 24.183594 352.214844 L 24.132812 352.261719 L 24.082031 352.304688 L 24.03125 352.351562 L 23.976562 352.394531 L 23.925781 352.4375 L 23.871094 352.480469 L 23.820312 352.527344 L 23.765625 352.570312 L 23.714844 352.613281 L 23.605469 352.699219 L 23.554688 352.746094 L 23.5 352.789062 L 23.449219 352.832031 L 23.394531 352.875 L 23.191406 353.046875 L 23.144531 353.089844 L 23.09375 353.136719 L 22.953125 353.265625 L 22.820312 353.398438 L 22.777344 353.445312 L 22.738281 353.488281 L 22.695312 353.535156 L 22.65625 353.578125 L 22.617188 353.625 L 22.582031 353.667969 L 22.511719 353.761719 L 22.476562 353.804688 L 22.445312 353.851562 L 22.363281 353.992188 L 22.339844 354.039062 L 22.316406 354.089844 L 22.292969 354.136719 L 25.453125 354.136719 L 25.453125 354.796875 Z M 21.441406 354.796875 "/>
<path style=" stroke:none;fill-rule:nonzero;fill:rgb(30.196078%,30.196078%,30.196078%);fill-opacity:1;" d="M 18.460938 282.105469 L 18.460938 281.417969 L 20.609375 281.417969 L 20.609375 282.105469 Z M 18.460938 282.105469 "/>
<path style=" stroke:none;fill-rule:nonzero;fill:rgb(30.196078%,30.196078%,30.196078%);fill-opacity:1;" d="M 21.671875 284.101562 L 21.671875 283.441406 L 23.214844 283.441406 L 23.214844 278.785156 L 21.847656 279.761719 L 21.847656 279.03125 L 23.277344 278.046875 L 23.992188 278.046875 L 23.992188 283.441406 L 25.464844 283.441406 L 25.464844 284.101562 Z M 21.671875 284.101562 "/>
<path style=" stroke:none;fill-rule:nonzero;fill:rgb(30.196078%,30.196078%,30.196078%);fill-opacity:1;" d="M 25.550781 210.375 L 25.550781 210.546875 L 25.542969 210.714844 L 25.535156 210.875 L 25.523438 211.03125 L 25.507812 211.179688 L 25.492188 211.324219 L 25.46875 211.460938 L 25.445312 211.59375 L 25.414062 211.722656 L 25.382812 211.84375 L 25.347656 211.960938 L 25.3125 212.074219 L 25.234375 212.285156 L 25.1875 212.382812 L 25.140625 212.476562 L 25.09375 212.566406 L 25.042969 212.652344 L 24.933594 212.808594 L 24.875 212.878906 L 24.8125 212.945312 L 24.753906 213.007812 L 24.6875 213.066406 L 24.621094 213.121094 L 24.554688 213.171875 L 24.484375 213.21875 L 24.414062 213.261719 L 24.335938 213.296875 L 24.261719 213.332031 L 24.183594 213.363281 L 24.105469 213.390625 L 24.023438 213.414062 L 23.945312 213.433594 L 23.863281 213.453125 L 23.777344 213.464844 L 23.695312 213.476562 L 23.609375 213.484375 L 23.4375 213.492188 L 23.347656 213.488281 L 23.261719 213.484375 L 23.175781 213.476562 L 23.09375 213.464844 L 23.007812 213.453125 L 22.925781 213.433594 L 22.847656 213.414062 L 22.765625 213.390625 L 22.6875 213.363281 L 22.613281 213.332031 L 22.535156 213.296875 L 22.460938 213.261719 L 22.390625 213.21875 L 22.320312 213.171875 L 22.253906 213.121094 L 22.1875 213.066406 L 22.125 213.007812 L 22.0625 212.945312 L 22.003906 212.878906 L 21.945312 212.808594 L 21.890625 212.734375 L 21.789062 212.570312 L 21.742188 212.480469 L 21.695312 212.386719 L 21.652344 212.289062 L 21.574219 212.078125 L 21.535156 211.964844 L 21.503906 211.851562 L 21.472656 211.726562 L 21.445312 211.601562 L 21.421875 211.464844 L 21.402344 211.328125 L 21.382812 211.183594 L 21.371094 211.03125 L 21.359375 210.875 L 21.351562 210.714844 L 21.34375 210.546875 L 21.34375 210.195312 L 21.351562 210.023438 L 21.359375 209.855469 L 21.371094 209.695312 L 21.382812 209.539062 L 21.402344 209.390625 L 21.421875 209.25 L 21.445312 209.113281 L 21.472656 208.984375 L 21.503906 208.863281 L 21.535156 208.746094 L 21.574219 208.632812 L 21.613281 208.523438 L 21.652344 208.421875 L 21.695312 208.324219 L 21.742188 208.230469 L 21.789062 208.140625 L 21.839844 208.058594 L 21.894531 207.980469 L 21.949219 207.90625 L 22.007812 207.835938 L 22.066406 207.769531 L 22.128906 207.710938 L 22.191406 207.65625 L 22.257812 207.601562 L 22.328125 207.554688 L 22.398438 207.511719 L 22.46875 207.472656 L 22.542969 207.4375 L 22.621094 207.40625 L 22.699219 207.378906 L 22.777344 207.355469 L 22.859375 207.332031 L 22.941406 207.3125 L 23.023438 207.296875 L 23.195312 207.273438 L 23.28125 207.265625 L 23.371094 207.261719 L 23.546875 207.261719 L 23.632812 207.265625 L 23.71875 207.273438 L 23.882812 207.296875 L 23.964844 207.3125 L 24.042969 207.332031 L 24.199219 207.378906 L 24.273438 207.40625 L 24.351562 207.4375 L 24.421875 207.472656 L 24.496094 207.511719 L 24.566406 207.554688 L 24.632812 207.601562 L 24.699219 207.65625 L 24.761719 207.710938 L 24.824219 207.769531 L 24.882812 207.835938 L 24.941406 207.90625 L 24.996094 207.980469 L 25.050781 208.058594 L 25.101562 208.140625 L 25.148438 208.230469 L 25.195312 208.324219 L 25.238281 208.421875 L 25.277344 208.523438 L 25.316406 208.632812 L 25.351562 208.746094 L 25.386719 208.863281 L 25.417969 208.984375 L 25.445312 209.113281 L 25.46875 209.25 L 25.492188 209.390625 L 25.511719 209.539062 L 25.523438 209.695312 L 25.535156 209.855469 L 25.542969 210.023438 L 25.550781 210.195312 Z M 24.765625 210.375 L 24.761719 210.234375 L 24.761719 210.097656 L 24.757812 209.964844 L 24.75 209.835938 L 24.742188 209.714844 L 24.734375 209.597656 L 24.722656 209.484375 L 24.710938 209.378906 L 24.695312 209.273438 L 24.679688 209.175781 L 24.660156 209.082031 L 24.640625 208.992188 L 24.621094 208.90625 L 24.597656 208.824219 L 24.570312 208.746094 L 24.546875 208.671875 L 24.519531 208.601562 L 24.488281 208.535156 L 24.457031 208.472656 L 24.425781 208.414062 L 24.390625 208.355469 L 24.355469 208.304688 L 24.316406 208.253906 L 24.238281 208.167969 L 24.195312 208.128906 L 24.152344 208.09375 L 24.105469 208.0625 L 24.0625 208.035156 L 24.011719 208.007812 L 23.964844 207.984375 L 23.863281 207.945312 L 23.808594 207.929688 L 23.699219 207.90625 L 23.640625 207.898438 L 23.523438 207.890625 L 23.460938 207.886719 L 23.273438 207.898438 L 23.214844 207.90625 L 23.097656 207.929688 L 23.042969 207.945312 L 22.988281 207.964844 L 22.9375 207.984375 L 22.886719 208.007812 L 22.835938 208.035156 L 22.789062 208.0625 L 22.742188 208.097656 L 22.699219 208.132812 L 22.65625 208.171875 L 22.617188 208.214844 L 22.574219 208.257812 L 22.539062 208.308594 L 22.5 208.359375 L 22.464844 208.417969 L 22.433594 208.476562 L 22.402344 208.539062 L 22.371094 208.605469 L 22.34375 208.675781 L 22.316406 208.75 L 22.292969 208.828125 L 22.269531 208.910156 L 22.25 208.996094 L 22.230469 209.085938 L 22.210938 209.179688 L 22.195312 209.277344 L 22.179688 209.382812 L 22.167969 209.488281 L 22.15625 209.601562 L 22.148438 209.71875 L 22.140625 209.839844 L 22.132812 209.96875 L 22.128906 210.097656 L 22.125 210.234375 L 22.125 210.511719 L 22.128906 210.644531 L 22.132812 210.773438 L 22.140625 210.898438 L 22.15625 211.132812 L 22.167969 211.242188 L 22.179688 211.347656 L 22.195312 211.453125 L 22.210938 211.550781 L 22.230469 211.644531 L 22.25 211.734375 L 22.273438 211.820312 L 22.296875 211.902344 L 22.320312 211.980469 L 22.347656 212.054688 L 22.375 212.125 L 22.40625 212.195312 L 22.4375 212.257812 L 22.46875 212.316406 L 22.503906 212.375 L 22.542969 212.425781 L 22.578125 212.476562 L 22.617188 212.523438 L 22.660156 212.566406 L 22.746094 212.644531 L 22.839844 212.707031 L 22.886719 212.734375 L 22.988281 212.78125 L 23.039062 212.796875 L 23.09375 212.816406 L 23.148438 212.828125 L 23.207031 212.839844 L 23.261719 212.847656 L 23.324219 212.855469 L 23.382812 212.859375 L 23.503906 212.859375 L 23.566406 212.855469 L 23.621094 212.847656 L 23.679688 212.839844 L 23.789062 212.816406 L 23.84375 212.796875 L 23.894531 212.78125 L 23.996094 212.734375 L 24.042969 212.707031 L 24.136719 212.644531 L 24.222656 212.566406 L 24.261719 212.523438 L 24.300781 212.476562 L 24.335938 212.425781 L 24.375 212.375 L 24.40625 212.316406 L 24.441406 212.257812 L 24.472656 212.195312 L 24.503906 212.125 L 24.53125 212.054688 L 24.558594 211.980469 L 24.585938 211.902344 L 24.609375 211.820312 L 24.628906 211.734375 L 24.652344 211.644531 L 24.667969 211.550781 L 24.6875 211.453125 L 24.71875 211.242188 L 24.730469 211.132812 L 24.742188 211.015625 L 24.75 210.898438 L 24.753906 210.773438 L 24.761719 210.644531 L 24.761719 210.511719 Z M 24.765625 210.375 "/>
<path style=" stroke:none;fill-rule:nonzero;fill:rgb(30.196078%,30.196078%,30.196078%);fill-opacity:1;" d="M 21.671875 142.710938 L 21.671875 142.054688 L 23.214844 142.054688 L 23.214844 137.394531 L 21.847656 138.371094 L 21.847656 137.640625 L 23.277344 136.65625 L 23.992188 136.65625 L 23.992188 142.054688 L 25.464844 142.054688 L 25.464844 142.710938 Z M 21.671875 142.710938 "/>
<path style=" stroke:none;fill-rule:nonzero;fill:rgb(30.196078%,30.196078%,30.196078%);fill-opacity:1;" d="M 21.441406 72.015625 L 21.441406 71.46875 L 21.535156 71.273438 L 21.582031 71.179688 L 21.632812 71.085938 L 21.6875 70.996094 L 21.738281 70.910156 L 21.796875 70.824219 L 21.855469 70.742188 L 21.914062 70.664062 L 22.039062 70.507812 L 22.105469 70.433594 L 22.167969 70.359375 L 22.367188 70.148438 L 22.433594 70.082031 L 22.574219 69.949219 L 22.640625 69.886719 L 22.710938 69.824219 L 22.78125 69.765625 L 22.851562 69.703125 L 22.917969 69.644531 L 22.988281 69.585938 L 23.054688 69.527344 L 23.125 69.472656 L 23.191406 69.417969 L 23.261719 69.363281 L 23.328125 69.308594 L 23.398438 69.253906 L 23.464844 69.203125 L 23.527344 69.148438 L 23.59375 69.09375 L 23.65625 69.042969 L 23.71875 68.988281 L 23.777344 68.933594 L 23.835938 68.882812 L 23.890625 68.828125 L 23.949219 68.777344 L 24 68.722656 L 24.054688 68.667969 L 24.101562 68.613281 L 24.152344 68.558594 L 24.195312 68.503906 L 24.238281 68.445312 L 24.28125 68.390625 L 24.320312 68.332031 L 24.355469 68.273438 L 24.390625 68.21875 L 24.421875 68.15625 L 24.453125 68.097656 L 24.5 67.972656 L 24.519531 67.90625 L 24.535156 67.839844 L 24.546875 67.769531 L 24.5625 67.628906 L 24.5625 67.503906 L 24.558594 67.453125 L 24.550781 67.359375 L 24.542969 67.3125 L 24.535156 67.269531 L 24.511719 67.183594 L 24.5 67.144531 L 24.453125 67.027344 L 24.414062 66.957031 L 24.390625 66.921875 L 24.34375 66.859375 L 24.316406 66.828125 L 24.261719 66.773438 L 24.230469 66.746094 L 24.136719 66.675781 L 24.066406 66.636719 L 23.910156 66.574219 L 23.867188 66.5625 L 23.828125 66.550781 L 23.785156 66.539062 L 23.738281 66.53125 L 23.695312 66.523438 L 23.648438 66.519531 L 23.601562 66.511719 L 23.554688 66.507812 L 23.367188 66.507812 L 23.320312 66.511719 L 23.277344 66.515625 L 23.234375 66.523438 L 23.1875 66.53125 L 23.101562 66.546875 L 23.0625 66.558594 L 23.019531 66.570312 L 22.980469 66.585938 L 22.941406 66.597656 L 22.902344 66.617188 L 22.863281 66.632812 L 22.757812 66.691406 L 22.722656 66.714844 L 22.691406 66.738281 L 22.660156 66.765625 L 22.628906 66.789062 L 22.539062 66.878906 L 22.515625 66.910156 L 22.488281 66.941406 L 22.417969 67.046875 L 22.359375 67.164062 L 22.328125 67.25 L 22.304688 67.335938 L 22.28125 67.429688 L 22.273438 67.480469 L 22.269531 67.53125 L 21.476562 67.457031 L 21.484375 67.390625 L 21.507812 67.265625 L 21.523438 67.203125 L 21.5625 67.078125 L 21.582031 67.019531 L 21.605469 66.957031 L 21.628906 66.898438 L 21.65625 66.84375 L 21.6875 66.785156 L 21.71875 66.730469 L 21.753906 66.675781 L 21.789062 66.625 L 21.867188 66.523438 L 21.953125 66.429688 L 22 66.382812 L 22.046875 66.339844 L 22.097656 66.296875 L 22.152344 66.253906 L 22.207031 66.214844 L 22.382812 66.109375 L 22.445312 66.078125 L 22.511719 66.050781 L 22.578125 66.019531 L 22.644531 65.996094 L 22.792969 65.949219 L 22.867188 65.933594 L 22.945312 65.914062 L 23.023438 65.902344 L 23.105469 65.890625 L 23.277344 65.875 L 23.367188 65.871094 L 23.546875 65.871094 L 23.71875 65.878906 L 23.804688 65.886719 L 23.882812 65.898438 L 23.964844 65.910156 L 24.042969 65.921875 L 24.117188 65.941406 L 24.191406 65.957031 L 24.261719 65.976562 L 24.332031 66 L 24.398438 66.023438 L 24.464844 66.050781 L 24.527344 66.082031 L 24.644531 66.144531 L 24.753906 66.214844 L 24.804688 66.253906 L 24.855469 66.296875 L 24.949219 66.382812 L 24.992188 66.429688 L 25.070312 66.53125 L 25.140625 66.640625 L 25.171875 66.695312 L 25.203125 66.753906 L 25.226562 66.816406 L 25.253906 66.878906 L 25.3125 67.078125 L 25.324219 67.148438 L 25.335938 67.222656 L 25.351562 67.371094 L 25.355469 67.449219 L 25.355469 67.589844 L 25.351562 67.648438 L 25.347656 67.710938 L 25.339844 67.769531 L 25.328125 67.828125 L 25.316406 67.882812 L 25.285156 68 L 25.246094 68.109375 L 25.175781 68.273438 L 25.148438 68.324219 L 25.117188 68.378906 L 25.089844 68.429688 L 25.058594 68.480469 L 24.917969 68.683594 L 24.878906 68.734375 L 24.839844 68.78125 L 24.800781 68.832031 L 24.671875 68.972656 L 24.625 69.019531 L 24.578125 69.070312 L 24.53125 69.113281 L 24.484375 69.160156 L 24.433594 69.207031 L 24.386719 69.253906 L 24.335938 69.300781 L 24.285156 69.34375 L 24.183594 69.4375 L 24.132812 69.480469 L 24.082031 69.527344 L 24.03125 69.570312 L 23.976562 69.613281 L 23.925781 69.65625 L 23.871094 69.703125 L 23.820312 69.746094 L 23.765625 69.789062 L 23.714844 69.832031 L 23.660156 69.878906 L 23.605469 69.921875 L 23.554688 69.964844 L 23.5 70.007812 L 23.449219 70.050781 L 23.394531 70.09375 L 23.292969 70.179688 L 23.242188 70.226562 L 23.191406 70.269531 L 23.144531 70.3125 L 23.09375 70.355469 L 23 70.441406 L 22.953125 70.488281 L 22.90625 70.53125 L 22.863281 70.574219 L 22.820312 70.621094 L 22.777344 70.664062 L 22.738281 70.707031 L 22.695312 70.753906 L 22.65625 70.796875 L 22.617188 70.84375 L 22.582031 70.890625 L 22.546875 70.933594 L 22.476562 71.027344 L 22.445312 71.070312 L 22.390625 71.164062 L 22.363281 71.214844 L 22.316406 71.308594 L 22.292969 71.359375 L 25.453125 71.359375 L 25.453125 72.015625 Z M 21.441406 72.015625 "/>
<path style="fill:none;stroke-width:1.066978;stroke-linecap:butt;stroke-linejoin:round;stroke:rgb(20%,20%,20%);stroke-opacity:1;stroke-miterlimit:10;" d="M 28.085938 351.769531 L 30.824219 351.769531 "/>
<path style="fill:none;stroke-width:1.066978;stroke-linecap:butt;stroke-linejoin:round;stroke:rgb(20%,20%,20%);stroke-opacity:1;stroke-miterlimit:10;" d="M 28.085938 281.074219 L 30.824219 281.074219 "/>
<path style="fill:none;stroke-width:1.066978;stroke-linecap:butt;stroke-linejoin:round;stroke:rgb(20%,20%,20%);stroke-opacity:1;stroke-miterlimit:10;" d="M 28.085938 210.378906 L 30.824219 210.378906 "/>
<path style="fill:none;stroke-width:1.066978;stroke-linecap:butt;stroke-linejoin:round;stroke:rgb(20%,20%,20%);stroke-opacity:1;stroke-miterlimit:10;" d="M 28.085938 139.683594 L 30.824219 139.683594 "/>
<path style="fill:none;stroke-width:1.066978;stroke-linecap:butt;stroke-linejoin:round;stroke:rgb(20%,20%,20%);stroke-opacity:1;stroke-miterlimit:10;" d="M 28.085938 68.988281 L 30.824219 68.988281 "/>
<path style="fill:none;stroke-width:1.066978;stroke-linecap:butt;stroke-linejoin:round;stroke:rgb(20%,20%,20%);stroke-opacity:1;stroke-miterlimit:10;" d="M 64.46875 403.859375 L 64.46875 401.117188 "/>
<path style="fill:none;stroke-width:1.066978;stroke-linecap:butt;stroke-linejoin:round;stroke:rgb(20%,20%,20%);stroke-opacity:1;stroke-miterlimit:10;" d="M 155.570312 403.859375 L 155.570312 401.117188 "/>
<path style="fill:none;stroke-width:1.066978;stroke-linecap:butt;stroke-linejoin:round;stroke:rgb(20%,20%,20%);stroke-opacity:1;stroke-miterlimit:10;" d="M 246.671875 403.859375 L 246.671875 401.117188 "/>
<path style="fill:none;stroke-width:1.066978;stroke-linecap:butt;stroke-linejoin:round;stroke:rgb(20%,20%,20%);stroke-opacity:1;stroke-miterlimit:10;" d="M 337.777344 403.859375 L 337.777344 401.117188 "/>
<path style="fill:none;stroke-width:1.066978;stroke-linecap:butt;stroke-linejoin:round;stroke:rgb(20%,20%,20%);stroke-opacity:1;stroke-miterlimit:10;" d="M 428.878906 403.859375 L 428.878906 401.117188 "/>
<path style=" stroke:none;fill-rule:nonzero;fill:rgb(30.196078%,30.196078%,30.196078%);fill-opacity:1;" d="M 60.945312 410.109375 L 60.945312 409.421875 L 63.09375 409.421875 L 63.09375 410.109375 Z M 60.945312 410.109375 "/>
<path style=" stroke:none;fill-rule:nonzero;fill:rgb(30.196078%,30.196078%,30.196078%);fill-opacity:1;" d="M 63.925781 412.105469 L 63.925781 411.558594 L 64.066406 411.265625 L 64.117188 411.175781 L 64.171875 411.085938 L 64.222656 411 L 64.28125 410.914062 L 64.398438 410.75 L 64.460938 410.671875 L 64.523438 410.597656 L 64.589844 410.523438 L 64.652344 410.449219 L 64.71875 410.375 L 64.785156 410.304688 L 64.921875 410.167969 L 64.988281 410.105469 L 65.058594 410.039062 L 65.125 409.976562 L 65.195312 409.914062 L 65.265625 409.855469 L 65.335938 409.792969 L 65.402344 409.734375 L 65.472656 409.675781 L 65.539062 409.617188 L 65.609375 409.5625 L 65.679688 409.503906 L 65.746094 409.449219 L 65.8125 409.398438 L 65.882812 409.34375 L 65.949219 409.289062 L 66.015625 409.238281 L 66.140625 409.128906 L 66.203125 409.078125 L 66.261719 409.023438 L 66.320312 408.972656 L 66.378906 408.917969 L 66.433594 408.863281 L 66.488281 408.8125 L 66.589844 408.703125 L 66.636719 408.648438 L 66.679688 408.589844 L 66.765625 408.480469 L 66.804688 408.421875 L 66.875 408.304688 L 66.9375 408.1875 L 66.964844 408.125 L 67.003906 407.992188 L 67.019531 407.925781 L 67.03125 407.859375 L 67.046875 407.71875 L 67.046875 407.59375 L 67.042969 407.542969 L 67.035156 407.449219 L 67.027344 407.402344 L 67.019531 407.359375 L 66.984375 407.230469 L 66.953125 407.152344 L 66.9375 407.117188 L 66.917969 407.078125 L 66.898438 407.046875 L 66.875 407.011719 L 66.828125 406.949219 L 66.800781 406.917969 L 66.746094 406.863281 L 66.714844 406.835938 L 66.621094 406.765625 L 66.550781 406.726562 L 66.511719 406.710938 L 66.472656 406.691406 L 66.433594 406.679688 L 66.394531 406.664062 L 66.351562 406.652344 L 66.3125 406.640625 L 66.269531 406.628906 L 66.226562 406.621094 L 66.132812 406.605469 L 66.089844 406.601562 L 66.039062 406.597656 L 65.992188 406.597656 L 65.941406 406.59375 L 65.898438 406.597656 L 65.851562 406.597656 L 65.804688 406.601562 L 65.761719 406.605469 L 65.71875 406.613281 L 65.671875 406.617188 L 65.628906 406.628906 L 65.589844 406.636719 L 65.503906 406.660156 L 65.464844 406.671875 L 65.386719 406.703125 L 65.351562 406.722656 L 65.3125 406.742188 L 65.242188 406.78125 L 65.207031 406.804688 L 65.144531 406.851562 L 65.082031 406.90625 L 65.054688 406.9375 L 65.023438 406.964844 L 65 407 L 64.972656 407.03125 L 64.902344 407.136719 L 64.84375 407.253906 L 64.828125 407.292969 L 64.8125 407.335938 L 64.800781 407.378906 L 64.765625 407.519531 L 64.757812 407.566406 L 64.753906 407.617188 L 63.960938 407.546875 L 63.972656 407.480469 L 63.980469 407.414062 L 63.996094 407.351562 L 64.007812 407.289062 L 64.027344 407.226562 L 64.046875 407.167969 L 64.066406 407.105469 L 64.113281 406.988281 L 64.140625 406.929688 L 64.203125 406.820312 L 64.273438 406.710938 L 64.3125 406.660156 L 64.351562 406.613281 L 64.394531 406.5625 L 64.4375 406.515625 L 64.484375 406.472656 L 64.636719 406.34375 L 64.691406 406.304688 L 64.75 406.269531 L 64.808594 406.230469 L 64.867188 406.199219 L 64.929688 406.167969 L 64.996094 406.136719 L 65.0625 406.109375 L 65.128906 406.085938 L 65.203125 406.058594 L 65.351562 406.019531 L 65.429688 406.003906 L 65.59375 405.980469 L 65.675781 405.972656 L 65.761719 405.964844 L 65.851562 405.960938 L 66.03125 405.960938 L 66.121094 405.964844 L 66.203125 405.96875 L 66.289062 405.976562 L 66.371094 405.988281 L 66.527344 406.011719 L 66.601562 406.027344 L 66.675781 406.046875 L 66.746094 406.066406 L 66.816406 406.089844 L 66.882812 406.113281 L 66.949219 406.140625 L 67.011719 406.167969 L 67.070312 406.199219 L 67.128906 406.234375 L 67.238281 406.304688 L 67.289062 406.34375 L 67.339844 406.386719 L 67.433594 406.472656 L 67.476562 406.519531 L 67.554688 406.621094 L 67.589844 406.671875 L 67.625 406.726562 L 67.6875 406.84375 L 67.714844 406.90625 L 67.738281 406.96875 L 67.757812 407.03125 L 67.777344 407.097656 L 67.796875 407.167969 L 67.820312 407.308594 L 67.832031 407.382812 L 67.84375 407.617188 L 67.839844 407.679688 L 67.832031 407.796875 L 67.824219 407.855469 L 67.789062 408.03125 L 67.769531 408.085938 L 67.75 408.144531 L 67.730469 408.199219 L 67.683594 408.308594 L 67.660156 408.359375 L 67.632812 408.414062 L 67.605469 408.464844 L 67.574219 408.519531 L 67.542969 408.570312 L 67.402344 408.773438 L 67.363281 408.820312 L 67.324219 408.871094 L 67.285156 408.917969 L 67.242188 408.96875 L 67.15625 409.0625 L 67.109375 409.109375 L 67.066406 409.15625 L 67.015625 409.203125 L 66.921875 409.296875 L 66.871094 409.34375 L 66.820312 409.386719 L 66.71875 409.480469 L 66.667969 409.523438 L 66.617188 409.570312 L 66.566406 409.613281 L 66.515625 409.660156 L 66.460938 409.703125 L 66.410156 409.746094 L 66.355469 409.789062 L 66.304688 409.835938 L 66.25 409.878906 L 66.199219 409.921875 L 66.144531 409.964844 L 66.09375 410.011719 L 65.984375 410.097656 L 65.933594 410.140625 L 65.878906 410.183594 L 65.675781 410.355469 L 65.628906 410.398438 L 65.578125 410.445312 L 65.4375 410.574219 L 65.304688 410.707031 L 65.261719 410.753906 L 65.222656 410.796875 L 65.179688 410.84375 L 65.140625 410.886719 L 65.105469 410.933594 L 65.066406 410.976562 L 64.996094 411.070312 L 64.960938 411.113281 L 64.929688 411.160156 L 64.847656 411.300781 L 64.824219 411.347656 L 64.800781 411.398438 L 64.777344 411.445312 L 67.9375 411.445312 L 67.9375 412.105469 Z M 63.925781 412.105469 "/>
<path style=" stroke:none;fill-rule:nonzero;fill:rgb(30.196078%,30.196078%,30.196078%);fill-opacity:1;" d="M 152.046875 410.109375 L 152.046875 409.421875 L 154.195312 409.421875 L 154.195312 410.109375 Z M 152.046875 410.109375 "/>
<path style=" stroke:none;fill-rule:nonzero;fill:rgb(30.196078%,30.196078%,30.196078%);fill-opacity:1;" d="M 155.257812 412.105469 L 155.257812 411.445312 L 156.800781 411.445312 L 156.800781 406.789062 L 155.433594 407.765625 L 155.433594 407.035156 L 156.867188 406.050781 L 157.578125 406.050781 L 157.578125 411.445312 L 159.050781 411.445312 L 159.050781 412.105469 Z M 155.257812 412.105469 "/>
<path style=" stroke:none;fill-rule:nonzero;fill:rgb(30.196078%,30.196078%,30.196078%);fill-opacity:1;" d="M 248.777344 409.074219 L 248.773438 409.246094 L 248.769531 409.414062 L 248.761719 409.574219 L 248.75 409.730469 L 248.734375 409.878906 L 248.714844 410.023438 L 248.695312 410.160156 L 248.667969 410.292969 L 248.640625 410.421875 L 248.609375 410.542969 L 248.574219 410.660156 L 248.539062 410.773438 L 248.5 410.878906 L 248.457031 410.984375 L 248.414062 411.082031 L 248.367188 411.175781 L 248.320312 411.265625 L 248.269531 411.351562 L 248.214844 411.429688 L 248.15625 411.507812 L 248.101562 411.578125 L 248.039062 411.644531 L 247.976562 411.707031 L 247.914062 411.765625 L 247.847656 411.820312 L 247.78125 411.871094 L 247.710938 411.917969 L 247.636719 411.960938 L 247.488281 412.03125 L 247.410156 412.0625 L 247.332031 412.089844 L 247.25 412.113281 L 247.167969 412.132812 L 247.003906 412.164062 L 246.921875 412.175781 L 246.835938 412.183594 L 246.664062 412.191406 L 246.574219 412.1875 L 246.488281 412.183594 L 246.402344 412.175781 L 246.316406 412.164062 L 246.152344 412.132812 L 246.074219 412.113281 L 245.992188 412.089844 L 245.914062 412.0625 L 245.835938 412.03125 L 245.6875 411.960938 L 245.617188 411.917969 L 245.546875 411.871094 L 245.480469 411.820312 L 245.414062 411.765625 L 245.351562 411.707031 L 245.289062 411.644531 L 245.230469 411.578125 L 245.171875 411.507812 L 245.0625 411.351562 L 245.015625 411.265625 L 244.964844 411.179688 L 244.921875 411.085938 L 244.878906 410.988281 L 244.835938 410.882812 L 244.800781 410.777344 L 244.761719 410.664062 L 244.730469 410.546875 L 244.699219 410.425781 L 244.671875 410.296875 L 244.648438 410.164062 L 244.628906 410.027344 L 244.609375 409.882812 L 244.59375 409.730469 L 244.585938 409.574219 L 244.578125 409.414062 L 244.570312 409.246094 L 244.570312 408.894531 L 244.578125 408.722656 L 244.585938 408.554688 L 244.59375 408.394531 L 244.609375 408.238281 L 244.628906 408.089844 L 244.648438 407.949219 L 244.671875 407.8125 L 244.699219 407.683594 L 244.730469 407.5625 L 244.761719 407.445312 L 244.800781 407.332031 L 244.835938 407.222656 L 244.878906 407.121094 L 244.921875 407.023438 L 244.96875 406.929688 L 245.015625 406.839844 L 245.066406 406.757812 L 245.121094 406.679688 L 245.175781 406.605469 L 245.234375 406.535156 L 245.292969 406.46875 L 245.417969 406.351562 L 245.484375 406.300781 L 245.554688 406.253906 L 245.625 406.210938 L 245.695312 406.171875 L 245.769531 406.136719 L 245.847656 406.105469 L 245.925781 406.078125 L 246.003906 406.054688 L 246.085938 406.03125 L 246.167969 406.011719 L 246.25 405.996094 L 246.421875 405.972656 L 246.507812 405.964844 L 246.597656 405.960938 L 246.773438 405.960938 L 246.859375 405.964844 L 246.945312 405.972656 L 247.109375 405.996094 L 247.1875 406.011719 L 247.269531 406.03125 L 247.425781 406.078125 L 247.5 406.105469 L 247.574219 406.136719 L 247.648438 406.171875 L 247.722656 406.210938 L 247.789062 406.253906 L 247.859375 406.300781 L 247.921875 406.351562 L 247.988281 406.410156 L 248.050781 406.46875 L 248.109375 406.535156 L 248.167969 406.605469 L 248.222656 406.679688 L 248.273438 406.757812 L 248.324219 406.839844 L 248.375 406.929688 L 248.417969 407.023438 L 248.464844 407.121094 L 248.503906 407.222656 L 248.542969 407.332031 L 248.578125 407.445312 L 248.613281 407.5625 L 248.644531 407.683594 L 248.671875 407.8125 L 248.695312 407.949219 L 248.71875 408.089844 L 248.734375 408.238281 L 248.75 408.394531 L 248.761719 408.554688 L 248.769531 408.722656 L 248.773438 408.894531 Z M 247.988281 409.074219 L 247.988281 408.796875 L 247.984375 408.664062 L 247.976562 408.535156 L 247.96875 408.414062 L 247.960938 408.296875 L 247.949219 408.183594 L 247.933594 408.078125 L 247.921875 407.972656 L 247.902344 407.875 L 247.886719 407.78125 L 247.867188 407.691406 L 247.84375 407.605469 L 247.824219 407.523438 L 247.796875 407.445312 L 247.773438 407.371094 L 247.742188 407.300781 L 247.714844 407.234375 L 247.683594 407.167969 L 247.652344 407.109375 L 247.617188 407.054688 L 247.582031 407.003906 L 247.542969 406.953125 L 247.464844 406.867188 L 247.421875 406.828125 L 247.378906 406.792969 L 247.285156 406.730469 L 247.238281 406.707031 L 247.1875 406.683594 L 247.140625 406.664062 L 247.085938 406.644531 L 247.035156 406.628906 L 246.925781 406.605469 L 246.808594 406.589844 L 246.75 406.589844 L 246.6875 406.585938 L 246.625 406.589844 L 246.5625 406.589844 L 246.4375 406.605469 L 246.382812 406.617188 L 246.324219 406.628906 L 246.269531 406.644531 L 246.214844 406.664062 L 246.164062 406.683594 L 246.113281 406.707031 L 246.0625 406.734375 L 246.015625 406.761719 L 245.96875 406.792969 L 245.839844 406.910156 L 245.800781 406.957031 L 245.761719 407.007812 L 245.726562 407.058594 L 245.691406 407.117188 L 245.660156 407.175781 L 245.628906 407.238281 L 245.597656 407.304688 L 245.570312 407.375 L 245.542969 407.449219 L 245.519531 407.527344 L 245.496094 407.609375 L 245.476562 407.695312 L 245.457031 407.785156 L 245.4375 407.878906 L 245.421875 407.976562 L 245.40625 408.082031 L 245.394531 408.1875 L 245.382812 408.300781 L 245.375 408.417969 L 245.367188 408.539062 L 245.359375 408.664062 L 245.355469 408.796875 L 245.351562 408.933594 L 245.351562 409.210938 L 245.355469 409.34375 L 245.359375 409.472656 L 245.367188 409.597656 L 245.382812 409.832031 L 245.394531 409.941406 L 245.40625 410.046875 L 245.421875 410.148438 L 245.4375 410.246094 L 245.457031 410.339844 L 245.476562 410.429688 L 245.523438 410.601562 L 245.546875 410.679688 L 245.574219 410.753906 L 245.601562 410.824219 L 245.632812 410.894531 L 245.664062 410.957031 L 245.695312 411.015625 L 245.730469 411.074219 L 245.765625 411.125 L 245.804688 411.175781 L 245.84375 411.222656 L 245.886719 411.265625 L 245.972656 411.34375 L 246.015625 411.375 L 246.0625 411.40625 L 246.113281 411.433594 L 246.214844 411.480469 L 246.265625 411.496094 L 246.375 411.527344 L 246.429688 411.539062 L 246.546875 411.554688 L 246.609375 411.558594 L 246.730469 411.558594 L 246.789062 411.554688 L 246.90625 411.539062 L 246.960938 411.527344 L 247.070312 411.496094 L 247.121094 411.480469 L 247.222656 411.433594 L 247.269531 411.40625 L 247.316406 411.375 L 247.359375 411.34375 L 247.40625 411.304688 L 247.488281 411.222656 L 247.527344 411.175781 L 247.597656 411.074219 L 247.667969 410.957031 L 247.699219 410.894531 L 247.730469 410.824219 L 247.757812 410.753906 L 247.785156 410.679688 L 247.808594 410.601562 L 247.835938 410.515625 L 247.855469 410.429688 L 247.875 410.339844 L 247.894531 410.246094 L 247.914062 410.148438 L 247.929688 410.046875 L 247.945312 409.941406 L 247.957031 409.832031 L 247.964844 409.714844 L 247.976562 409.597656 L 247.980469 409.472656 L 247.988281 409.34375 Z M 247.988281 409.074219 "/>
<path style=" stroke:none;fill-rule:nonzero;fill:rgb(30.196078%,30.196078%,30.196078%);fill-opacity:1;" d="M 336 412.105469 L 336 411.445312 L 337.542969 411.445312 L 337.542969 406.789062 L 336.175781 407.765625 L 336.175781 407.035156 L 337.605469 406.050781 L 338.320312 406.050781 L 338.320312 411.445312 L 339.792969 411.445312 L 339.792969 412.105469 Z M 336 412.105469 "/>
<path style=" stroke:none;fill-rule:nonzero;fill:rgb(30.196078%,30.196078%,30.196078%);fill-opacity:1;" d="M 426.875 412.105469 L 426.875 411.558594 L 426.917969 411.460938 L 426.964844 411.363281 L 427.015625 411.265625 L 427.117188 411.085938 L 427.226562 410.914062 L 427.285156 410.832031 L 427.347656 410.75 L 427.40625 410.671875 L 427.472656 410.597656 L 427.535156 410.523438 L 427.667969 410.375 L 427.734375 410.304688 L 427.800781 410.238281 L 427.867188 410.167969 L 427.9375 410.105469 L 428.003906 410.039062 L 428.144531 409.914062 L 428.210938 409.855469 L 428.28125 409.792969 L 428.351562 409.734375 L 428.417969 409.675781 L 428.488281 409.617188 L 428.558594 409.5625 L 428.625 409.503906 L 428.695312 409.449219 L 428.761719 409.398438 L 428.894531 409.289062 L 428.960938 409.238281 L 429.027344 409.183594 L 429.089844 409.128906 L 429.148438 409.078125 L 429.210938 409.023438 L 429.265625 408.972656 L 429.324219 408.917969 L 429.378906 408.863281 L 429.433594 408.8125 L 429.535156 408.703125 L 429.582031 408.648438 L 429.628906 408.589844 L 429.671875 408.535156 L 429.710938 408.480469 L 429.789062 408.363281 L 429.824219 408.304688 L 429.855469 408.246094 L 429.882812 408.1875 L 429.910156 408.125 L 429.933594 408.058594 L 429.953125 407.992188 L 429.96875 407.925781 L 429.980469 407.859375 L 429.988281 407.789062 L 429.992188 407.71875 L 429.996094 407.644531 L 429.992188 407.59375 L 429.992188 407.542969 L 429.988281 407.496094 L 429.980469 407.449219 L 429.976562 407.402344 L 429.964844 407.359375 L 429.957031 407.316406 L 429.933594 407.230469 L 429.902344 407.152344 L 429.882812 407.117188 L 429.863281 407.078125 L 429.84375 407.046875 L 429.824219 407.011719 L 429.800781 406.980469 L 429.773438 406.949219 L 429.75 406.917969 L 429.695312 406.863281 L 429.664062 406.835938 L 429.601562 406.789062 L 429.566406 406.765625 L 429.496094 406.726562 L 429.460938 406.710938 L 429.421875 406.691406 L 429.382812 406.679688 L 429.339844 406.664062 L 429.300781 406.652344 L 429.214844 406.628906 L 429.128906 406.613281 L 429.082031 406.605469 L 428.988281 406.597656 L 428.941406 406.597656 L 428.890625 406.59375 L 428.84375 406.597656 L 428.796875 406.597656 L 428.753906 406.601562 L 428.707031 406.605469 L 428.664062 406.613281 L 428.621094 406.617188 L 428.578125 406.628906 L 428.535156 406.636719 L 428.492188 406.648438 L 428.453125 406.660156 L 428.410156 406.671875 L 428.371094 406.6875 L 428.335938 406.703125 L 428.296875 406.722656 L 428.191406 406.78125 L 428.15625 406.804688 L 428.125 406.828125 L 428.089844 406.851562 L 428.058594 406.878906 L 427.972656 406.964844 L 427.945312 407 L 427.921875 407.03125 L 427.894531 407.066406 L 427.871094 407.101562 L 427.851562 407.136719 L 427.828125 407.175781 L 427.808594 407.214844 L 427.777344 407.292969 L 427.746094 407.378906 L 427.722656 407.472656 L 427.707031 407.566406 L 427.699219 407.617188 L 426.910156 407.546875 L 426.917969 407.480469 L 426.929688 407.414062 L 426.941406 407.351562 L 426.972656 407.226562 L 426.992188 407.167969 L 427.015625 407.105469 L 427.0625 406.988281 L 427.089844 406.929688 L 427.183594 406.765625 L 427.21875 406.710938 L 427.257812 406.660156 L 427.296875 406.613281 L 427.339844 406.5625 L 427.386719 406.515625 L 427.480469 406.429688 L 427.53125 406.386719 L 427.585938 406.34375 L 427.640625 406.304688 L 427.695312 406.269531 L 427.753906 406.230469 L 427.941406 406.136719 L 428.007812 406.109375 L 428.078125 406.085938 L 428.148438 406.058594 L 428.222656 406.039062 L 428.300781 406.019531 L 428.378906 406.003906 L 428.457031 405.992188 L 428.539062 405.980469 L 428.710938 405.964844 L 428.800781 405.960938 L 428.980469 405.960938 L 429.152344 405.96875 L 429.234375 405.976562 L 429.316406 405.988281 L 429.472656 406.011719 L 429.550781 406.027344 L 429.621094 406.046875 L 429.695312 406.066406 L 429.761719 406.089844 L 429.832031 406.113281 L 429.957031 406.167969 L 430.019531 406.199219 L 430.078125 406.234375 L 430.1875 406.304688 L 430.238281 406.34375 L 430.285156 406.386719 L 430.335938 406.429688 L 430.378906 406.472656 L 430.421875 406.519531 L 430.464844 406.570312 L 430.503906 406.621094 L 430.539062 406.671875 L 430.574219 406.726562 L 430.605469 406.785156 L 430.632812 406.84375 L 430.660156 406.90625 L 430.707031 407.03125 L 430.726562 407.097656 L 430.757812 407.238281 L 430.769531 407.308594 L 430.777344 407.382812 L 430.785156 407.460938 L 430.789062 407.539062 L 430.789062 407.679688 L 430.78125 407.796875 L 430.773438 407.855469 L 430.75 407.972656 L 430.734375 408.03125 L 430.71875 408.085938 L 430.699219 408.144531 L 430.679688 408.199219 L 430.632812 408.308594 L 430.605469 408.359375 L 430.578125 408.414062 L 430.550781 408.464844 L 430.519531 408.519531 L 430.457031 408.621094 L 430.386719 408.722656 L 430.347656 408.773438 L 430.3125 408.820312 L 430.273438 408.871094 L 430.230469 408.917969 L 430.191406 408.96875 L 430.148438 409.015625 L 430.101562 409.0625 L 430.058594 409.109375 L 429.917969 409.25 L 429.816406 409.34375 L 429.769531 409.386719 L 429.667969 409.480469 L 429.617188 409.523438 L 429.566406 409.570312 L 429.515625 409.613281 L 429.460938 409.660156 L 429.410156 409.703125 L 429.355469 409.746094 L 429.304688 409.789062 L 429.25 409.835938 L 429.199219 409.878906 L 429.144531 409.921875 L 429.09375 409.964844 L 429.039062 410.011719 L 428.988281 410.054688 L 428.878906 410.140625 L 428.574219 410.398438 L 428.527344 410.445312 L 428.476562 410.488281 L 428.382812 410.574219 L 428.339844 410.621094 L 428.253906 410.707031 L 428.210938 410.753906 L 428.167969 410.796875 L 428.128906 410.84375 L 428.089844 410.886719 L 428.050781 410.933594 L 428.015625 410.976562 L 427.976562 411.023438 L 427.941406 411.070312 L 427.910156 411.113281 L 427.847656 411.207031 L 427.820312 411.253906 L 427.796875 411.300781 L 427.769531 411.347656 L 427.746094 411.398438 L 427.726562 411.445312 L 430.882812 411.445312 L 430.882812 412.105469 Z M 426.875 412.105469 "/>
<path style=" stroke:none;fill-rule:nonzero;fill:rgb(0%,0%,0%);fill-opacity:1;" d="M 248.226562 424.238281 L 246.664062 421.851562 L 245.089844 424.238281 L 244.046875 424.238281 L 246.113281 421.25 L 244.144531 418.425781 L 245.210938 418.425781 L 246.664062 420.6875 L 248.101562 418.425781 L 249.179688 418.425781 L 247.210938 421.242188 L 249.304688 424.238281 Z M 248.226562 424.238281 "/>
<path style=" stroke:none;fill-rule:nonzero;fill:rgb(0%,0%,0%);fill-opacity:1;" d="M 13.046875 202.804688 L 13.152344 202.84375 L 13.253906 202.886719 L 13.351562 202.929688 L 13.453125 202.96875 L 13.640625 203.054688 L 13.730469 203.097656 L 13.820312 203.136719 L 14.078125 203.265625 L 14.15625 203.308594 L 14.234375 203.355469 L 14.3125 203.398438 L 14.382812 203.445312 L 14.457031 203.496094 L 14.523438 203.542969 L 14.589844 203.59375 L 14.652344 203.644531 L 14.710938 203.695312 L 14.828125 203.804688 L 14.878906 203.859375 L 14.929688 203.917969 L 14.976562 203.972656 L 15.019531 204.035156 L 15.0625 204.09375 L 15.101562 204.15625 L 15.136719 204.21875 L 15.167969 204.28125 L 15.199219 204.347656 L 15.226562 204.414062 L 15.273438 204.554688 L 15.304688 204.703125 L 15.316406 204.78125 L 15.324219 204.859375 L 15.328125 204.941406 L 15.328125 205.199219 L 15.324219 205.234375 L 15.324219 205.296875 L 15.320312 205.328125 L 15.320312 205.363281 L 15.300781 205.519531 L 15.296875 205.554688 L 15.292969 205.585938 L 15.277344 205.65625 L 15.269531 205.6875 L 14.546875 205.6875 L 14.550781 205.667969 L 14.550781 205.648438 L 14.558594 205.601562 L 14.558594 205.582031 L 14.5625 205.558594 L 14.5625 205.53125 L 14.566406 205.507812 L 14.566406 205.457031 L 14.570312 205.433594 L 14.570312 205.40625 L 14.574219 205.382812 L 14.574219 205.339844 L 14.578125 205.316406 L 14.578125 205.238281 L 14.574219 205.152344 L 14.566406 205.070312 L 14.550781 204.988281 L 14.527344 204.90625 L 14.5 204.828125 L 14.464844 204.75 L 14.421875 204.671875 L 14.375 204.597656 L 14.320312 204.523438 L 14.261719 204.449219 L 14.195312 204.375 L 14.121094 204.304688 L 14.039062 204.238281 L 13.949219 204.171875 L 13.851562 204.105469 L 13.746094 204.042969 L 13.632812 203.980469 L 13.511719 203.921875 L 13.386719 203.863281 L 13.25 203.808594 L 13.019531 203.71875 L 7.234375 206.023438 L 7.234375 204.992188 L 10.449219 203.765625 L 10.476562 203.753906 L 10.507812 203.742188 L 10.578125 203.71875 L 10.617188 203.707031 L 10.65625 203.691406 L 10.699219 203.679688 L 10.785156 203.648438 L 10.835938 203.632812 L 10.882812 203.613281 L 10.929688 203.597656 L 10.980469 203.582031 L 11.027344 203.5625 L 11.074219 203.546875 L 11.125 203.53125 L 11.171875 203.515625 L 11.222656 203.496094 L 11.316406 203.464844 L 11.367188 203.449219 L 11.414062 203.433594 L 11.457031 203.414062 L 11.503906 203.398438 L 11.546875 203.386719 L 11.632812 203.355469 L 11.671875 203.339844 L 11.714844 203.328125 L 11.753906 203.316406 L 11.789062 203.300781 L 11.824219 203.292969 L 11.855469 203.28125 L 11.910156 203.265625 L 11.933594 203.257812 L 11.953125 203.25 L 11.984375 203.242188 L 11.996094 203.238281 L 11.949219 203.226562 L 11.929688 203.21875 L 11.90625 203.214844 L 11.882812 203.203125 L 11.828125 203.1875 L 11.796875 203.175781 L 11.726562 203.152344 L 11.691406 203.136719 L 11.652344 203.125 L 11.617188 203.109375 L 11.578125 203.097656 L 11.539062 203.082031 L 11.496094 203.070312 L 11.457031 203.054688 L 11.113281 202.929688 L 11.066406 202.914062 L 11.023438 202.894531 L 10.808594 202.816406 L 10.769531 202.804688 L 10.730469 202.789062 L 10.695312 202.777344 L 10.65625 202.765625 L 10.621094 202.753906 L 10.589844 202.742188 L 10.554688 202.730469 L 7.234375 201.589844 L 7.234375 200.570312 Z M 13.046875 202.804688 "/>
</g>
</svg>
